<?xml version="1.0" standalone="no"?>
<!DOCTYPE svg PUBLIC "-//W3C//DTD SVG 20010904//EN"
 "http://www.w3.org/TR/2001/REC-SVG-20010904/DTD/svg10.dtd">
<svg version="1.0" xmlns="http://www.w3.org/2000/svg"
 width="512.000000pt" height="512.000000pt" viewBox="0 0 512.000000 512.000000"
 preserveAspectRatio="xMidYMid meet">
<metadata>
Created by potrace 1.14, written by Peter Selinger 2001-2017
</metadata>
<g transform="translate(0.000000,512.000000) scale(0.100000,-0.100000)"
fill="#000000" stroke="none">
<path d="M2379 5116 c-2 -2 -40 -6 -83 -10 -44 -4 -82 -8 -85 -10 -3 -2 -31
-7 -61 -11 -30 -3 -75 -11 -100 -17 -25 -5 -56 -12 -70 -14 -131 -25 -382
-115 -550 -198 -795 -395 -1326 -1158 -1418 -2036 -9 -86 -9 -415 0 -510 13
-140 82 -475 104 -512 3 -4 7 -16 9 -25 12 -61 99 -267 169 -403 255 -492 710
-921 1209 -1141 50 -22 101 -45 112 -50 110 -50 436 -135 595 -154 30 -4 82
-10 115 -14 63 -9 475 -7 511 2 12 3 45 8 75 12 45 6 99 16 270 50 9 2 63 18
120 35 572 176 1056 536 1389 1034 166 249 285 521 358 821 32 131 42 188 59
340 10 90 10 408 1 505 -39 389 -166 763 -374 1101 -31 51 -60 96 -64 99 -3 3
-17 21 -30 40 -32 47 -126 165 -175 219 -298 329 -663 571 -1075 713 -87 29
-305 88 -350 94 -14 1 -38 5 -55 8 -16 3 -50 8 -75 11 -25 4 -56 9 -70 11 -29
6 -456 15 -461 10z"/>
</g>
</svg>
